<svg width="30" height="30" viewBox="0 0 30 30" fill="none" xmlns="http://www.w3.org/2000/svg">
<path d="M15 29.9998C6.7099 29.9998 0 23.2816 0 15C0 6.70967 6.70876 0 15 0C23.2903 0 29.9998 6.70876 29.9998 15C29.9998 23.2896 23.2809 29.9998 15 29.9998Z" fill="#66A9DF"/>
<path d="M15 0V29.9998C23.2809 29.9998 29.9998 23.2896 29.9998 15C29.9998 6.70898 23.2903 0 15 0Z" fill="#4F84CF"/>
<path d="M15 18.5156C10.6354 18.5156 6.47388 20.4236 3.4325 24.549C9.48894 31.8697 20.6993 31.8073 26.6741 24.4183C25.1987 22.9507 21.8756 18.5156 15 18.5156Z" fill="#D6F3FE"/>
<path d="M26.6741 24.4183C23.8534 27.9062 19.6211 29.9998 15 29.9998V18.5156C21.8758 18.5156 25.1987 22.9511 26.6741 24.4183Z" fill="#BDECFC"/>
<path d="M15 15.8789C12.0921 15.8789 9.72656 13.5132 9.72656 10.6055V8.84766C9.72656 5.93994 12.0921 3.57422 15 3.57422C17.9077 3.57422 20.2734 5.93994 20.2734 8.84766V10.6055C20.2734 13.5132 17.9077 15.8789 15 15.8789Z" fill="#D6F3FE"/>
<path d="M15 3.57422V15.8789C17.9079 15.8789 20.2734 13.5134 20.2734 10.6055V8.84766C20.2734 5.93971 17.9079 3.57422 15 3.57422Z" fill="#BDECFC"/>
</svg>
